HIERARCHY
ROOT Hips
{
	OFFSET 0.000000 0.000000 0.000000
	CHANNELS 6 Xposition Yposition Zposition Zrotation Yrotation Xrotation 
	JOINT LHipJoint
	{
		OFFSET 0.000000 0.000000 0.000000
		CHANNELS 3 Zrotation Yrotation Xrotation
		JOINT LeftUpLeg
		{
			OFFSET 1.363060 -1.794630 0.839290
			CHANNELS 3 Zrotation Yrotation Xrotation
			JOINT LeftLeg
			{
				OFFSET 2.448110 -6.726130 0.000000
				CHANNELS 3 Zrotation Yrotation Xrotation
				JOINT LeftFoot
				{
					OFFSET 2.562200 -7.039590 0.000000
					CHANNELS 3 Zrotation Yrotation Xrotation
					JOINT LeftToeBase
					{
						OFFSET 0.157640 -0.433110 2.322550
						CHANNELS 3 Zrotation Yrotation Xrotation
						End Site
						{
							OFFSET 0.000000 0.000000 0.000000
						}
					}
				}
			}
		}
	}
	JOINT RHipJoint
	{
		OFFSET 0.000000 0.000000 0.000000
		CHANNELS 3 Zrotation Yrotation Xrotation
		JOINT RightUpLeg
		{
			OFFSET -1.305520 -1.794630 0.839290
			CHANNELS 3 Zrotation Yrotation Xrotation
			JOINT RightLeg
			{
				OFFSET -2.542530 -6.985550 0.000000
				CHANNELS 3 Zrotation Yrotation Xrotation
				JOINT RightFoot
				{
					OFFSET -2.568260 -7.056230 0.000000
					CHANNELS 3 Zrotation Yrotation Xrotation
					JOINT RightToeBase
					{
						OFFSET -0.164730 -0.452590 2.363150
						CHANNELS 3 Zrotation Yrotation Xrotation
						End Site
						{
							OFFSET 0.000000 0.000000 0.000000
						}
					}
				}
			}
		}
	}
	JOINT LowerBack
	{
		OFFSET 0.000000 0.000000 0.000000
		CHANNELS 3 Zrotation Yrotation Xrotation
		JOINT Spine
		{
			OFFSET 0.028270 2.035590 -0.193380
			CHANNELS 3 Zrotation Yrotation Xrotation
			JOINT Spine1
			{
				OFFSET 0.056720 2.048850 -0.042750
				CHANNELS 3 Zrotation Yrotation Xrotation
				JOINT Neck
				{
					OFFSET 0.000000 0.000000 0.000000
					CHANNELS 3 Zrotation Yrotation Xrotation
					JOINT Neck1
					{
						OFFSET -0.054170 1.746240 0.172020
						CHANNELS 3 Zrotation Yrotation Xrotation
						JOINT Head
						{
							OFFSET 0.104070 1.761360 -0.123970
							CHANNELS 3 Zrotation Yrotation Xrotation
							End Site
							{
								OFFSET 0.000000 0.000000 0.000000
							}
						}
					}
				}
				JOINT LeftShoulder
				{
					OFFSET 0.000000 0.000000 0.000000
					CHANNELS 3 Zrotation Yrotation Xrotation
					JOINT LeftArm
					{
						OFFSET 3.362410 1.200890 -0.311210
						CHANNELS 3 Zrotation Yrotation Xrotation
						JOINT LeftForeArm
						{
							OFFSET 4.983000 -0.000000 -0.000000
							CHANNELS 3 Zrotation Yrotation Xrotation
							JOINT LeftHand
							{
								OFFSET 3.483560 -0.000000 -0.000000
								CHANNELS 3 Zrotation Yrotation Xrotation
								JOINT LeftFingerBase
								{
									OFFSET 0.000000 0.000000 0.000000
									CHANNELS 3 Zrotation Yrotation Xrotation
									JOINT LeftHandIndex1
									{
										OFFSET 0.715260 -0.000000 -0.000000
										CHANNELS 3 Zrotation Yrotation Xrotation
										End Site
										{
											OFFSET 0.000000 0.000000 0.000000
										}
									}
								}
								JOINT LThumb
								{
									OFFSET 0.000000 0.000000 0.000000
									CHANNELS 3 Zrotation Yrotation Xrotation
									End Site
									{
										OFFSET 0.000000 0.000000 0.000000
									}
								}
							}
						}
					}
				}
				JOINT RightShoulder
				{
					OFFSET 0.000000 0.000000 0.000000
					CHANNELS 3 Zrotation Yrotation Xrotation
					JOINT RightArm
					{
						OFFSET -3.136600 1.374050 -0.404650
						CHANNELS 3 Zrotation Yrotation Xrotation
						JOINT RightForeArm
						{
							OFFSET -5.241900 -0.000000 -0.000000
							CHANNELS 3 Zrotation Yrotation Xrotation
							JOINT RightHand
							{
								OFFSET -3.444170 -0.000000 -0.000000
								CHANNELS 3 Zrotation Yrotation Xrotation
								JOINT RightFingerBase
								{
									OFFSET 0.000000 0.000000 0.000000
									CHANNELS 3 Zrotation Yrotation Xrotation
									JOINT RightHandIndex1
									{
										OFFSET -0.622530 -0.000000 -0.000000
										CHANNELS 3 Zrotation Yrotation Xrotation
										End Site
										{
											OFFSET 0.000000 0.000000 0.000000
										}
									}
								}
								JOINT RThumb
								{
									OFFSET 0.000000 0.000000 0.000000
									CHANNELS 3 Zrotation Yrotation Xrotation
									End Site
									{
										OFFSET 0.000000 0.000000 0.000000
									}
								}
							}
						}
					}
				}
			}
		}
	}
}
MOTION
Frames: 12
Frame Time: 0.008333
0.714299 16.614397 0.217246 51.320467 78.938848 67.623718 -11.325247 5.589436 0.921486 -1.677168 11.985491 -5.522385 -0.693262 1.572137 32.054869 0.692408 -8.262197 23.713928 -4.306900 0.000000 -54.778501 9.070130 -0.857079 3.737241 13.996722 5.469756 -39.426873 1.405026 -1.654484 37.914862 -3.561246 -9.504519 -23.304359 -177.485100 -0.000000 -12.991500 1.807448 -5.500349 -5.683753 -0.012569 -5.858528 -3.693587 -7.022267 -5.883102 1.051341 5.356175 -14.034291 -9.194390 -4.354289 -0.317292 -0.452471 0.000000 0.000000 0.000000 -0.069852 7.793753 1.117709 -53.584629 -6.657616 16.632788 -179.726369 -86.400413 179.987258 1.808372 3.725125 0.061250 -0.141013 0.307090 -0.000000 0.000000 0.000000 0.000000 0.000000 0.000000 0.000000 13.595481 -10.776212 -0.554948 70.189615 -1.006614 -13.540158 0.432732 75.625912 -0.018129 -5.772729 7.786094 -0.416344 0.099231 -0.341840 0.000000 0.000000 0.000000 0.000000 0.000000 0.000000 0.000000 
0.899927 16.612988 0.309179 54.045767 79.320775 70.051319 -11.340309 5.460825 0.943622 -0.959570 11.525802 -6.281383 -0.548722 1.623003 33.989272 0.767374 -7.235484 23.454874 -3.845400 0.000000 -52.094200 9.052511 -0.920522 3.551775 14.399986 5.007968 -38.099865 1.457908 -1.610308 37.743754 -3.687180 -9.791226 -24.326129 -177.179400 -0.000000 -12.527400 1.795234 -5.634347 -5.571849 -0.028220 -5.988445 -3.660749 -7.071856 -6.018330 1.100227 5.491624 -13.806658 -9.070843 -4.421877 -0.323384 -0.419319 0.000000 0.000000 0.000000 -0.229788 7.730522 1.081886 -53.880177 -6.906887 15.557344 -179.885854 -88.089508 179.980294 2.833734 4.085373 0.101982 -0.156519 0.298111 -0.000000 0.000000 0.000000 0.000000 0.000000 0.000000 0.000000 14.099423 -10.883053 -0.597604 71.116421 -0.520468 -15.770504 0.434981 73.525212 -0.034619 -9.430680 7.297770 -0.638088 0.134133 -0.332648 -0.000000 0.000000 0.000000 0.000000 0.000000 0.000000 0.000000 
1.084668 16.618302 0.404167 57.091415 79.691253 72.832288 -11.325680 5.314101 0.966891 -0.322669 11.056358 -7.149927 -0.407153 1.666309 35.858604 0.851539 -5.714689 23.014029 -3.145600 -0.000000 -50.015801 9.044613 -0.993666 3.386996 14.808128 4.505197 -36.678368 1.523706 -1.530491 37.151170 -3.812883 -10.097800 -25.181948 -176.898800 0.000001 -12.040700 1.746687 -5.753493 -5.483422 -0.049435 -6.101131 -3.628326 -7.107418 -6.135993 1.165925 5.647009 -13.632455 -8.949581 -4.473794 -0.328299 -0.385436 0.000000 0.000000 0.000000 -0.372847 7.665730 1.024743 -54.208779 -7.186643 14.595194 179.957654 -89.834102 179.973104 3.941802 4.439889 0.152191 -0.171272 0.289052 -0.000000 0.000000 0.000000 0.000000 0.000000 0.000000 0.000000 14.576004 -11.058194 -0.631154 71.967660 -0.013126 -17.671505 0.411325 71.497684 -0.052219 -13.427337 6.468931 -0.808853 0.169247 -0.318793 -0.000000 0.000000 0.000000 0.000000 0.000000 0.000000 0.000000 
1.268681 16.629436 0.502488 60.309851 80.010376 75.825059 -11.276739 5.154944 0.991272 0.198010 10.585631 -8.111282 -0.273097 1.701895 37.634550 0.948653 -3.753045 22.388383 -2.247300 -0.000001 -48.371100 9.059020 -1.065914 3.250088 15.177693 4.005146 -35.207244 1.588973 -1.423199 36.244329 -3.931782 -10.419289 -25.845539 -176.653200 0.000000 -11.662300 1.649655 -5.850722 -5.422507 -0.079269 -6.188837 -3.597439 -7.131139 -6.228090 1.245465 5.818373 -13.498706 -8.831239 -4.508869 -0.331954 -0.351179 0.000000 0.000000 0.000000 -0.503298 7.604114 0.951362 -54.527961 -7.478228 13.760312 -0.188523 -88.419513 -0.033907 5.076377 4.765607 0.209177 -0.184546 0.280052 -0.000000 0.000000 0.000000 0.000000 0.000000 0.000000 0.000000 15.008033 -11.272722 -0.651426 72.748589 0.478706 -19.194842 0.368020 69.572110 -0.069580 -17.609849 5.338640 -0.883033 0.202555 -0.300521 -0.000000 0.000000 0.000000 0.000000 0.000000 0.000000 0.000000 
1.451964 16.645649 0.603903 63.445083 80.249320 78.779740 -11.196296 4.988574 1.015363 0.582382 10.126609 -9.144122 -0.151257 1.729770 39.285661 1.063091 -1.440747 21.592258 -1.211600 0.000000 -47.040200 9.100767 -1.129792 3.146266 15.479924 3.557694 -33.719599 1.643062 -1.296060 35.124173 -4.037371 -10.746787 -26.299126 -176.451900 -0.000000 -11.496100 1.500732 -5.918727 -5.389581 -0.118973 -6.244084 -3.568932 -7.145234 -6.286924 1.334985 6.001201 -13.389986 -8.716589 -4.526739 -0.334309 -0.317088 0.000000 0.000000 0.000000 -0.629984 7.556603 0.869225 -54.799997 -7.768783 13.064503 -0.319190 -86.718833 -0.040230 6.172835 5.046671 0.268746 -0.195836 0.271172 -0.000000 0.000000 0.000000 0.000000 0.000000 0.000000 0.000000 15.381381 -11.493521 -0.656312 73.458686 0.930937 -20.301000 0.314528 67.758040 -0.085137 -21.775686 3.978123 -0.826621 0.231740 -0.278653 -0.000000 0.000000 0.000000 0.000000 0.000000 0.000000 0.000000 
1.634369 16.666412 0.707793 66.185391 80.395360 81.388569 -11.093839 4.818265 1.035987 0.828292 9.697283 -10.226778 -0.046114 1.750504 40.786547 1.196724 1.097633 20.639132 -0.114100 0.000000 -45.785400 9.166210 -1.182740 3.079084 15.702589 3.214431 -32.235920 1.678762 -1.156461 33.876491 -4.124467 -11.071304 -26.531076 -176.303500 0.000001 -11.563900 1.305181 -5.951154 -5.382075 -0.167924 -6.260838 -3.544041 -7.151678 -6.306419 1.427507 6.189473 -13.287024 -8.603840 -4.528181 -0.335429 -0.283036 0.000000 0.000000 0.000000 -0.764123 7.530281 0.787517 -54.993984 -8.041986 12.512523 -0.431363 -85.106833 -0.045486 7.164765 5.274976 0.325898 -0.204818 0.262430 -0.000000 0.000000 0.000000 0.000000 0.000000 0.000000 0.000000 15.684993 -11.683566 -0.646145 74.091375 1.326640 -20.965087 0.261265 66.050160 -0.097562 -25.702695 2.484084 -0.629809 0.254857 -0.254636 -0.000000 0.000000 0.000000 0.000000 0.000000 0.000000 0.000000 
1.815587 16.691202 0.813687 68.262457 80.439429 83.385364 -10.977104 4.647467 1.051937 0.927845 9.302826 -11.334619 0.039299 1.764208 42.109929 1.349037 3.731263 19.568080 0.971800 0.000000 -44.479400 9.252654 -1.223889 3.048106 15.830351 3.004194 -30.777538 1.692467 -1.012953 32.581638 -4.186098 -11.369305 -26.542262 -176.217300 -0.000001 -11.813300 1.060017 -5.945237 -5.396172 -0.227024 -6.235862 -3.523976 -7.152220 -6.283477 1.514620 6.379009 -13.167958 -8.489301 -4.514844 -0.335462 -0.248339 0.000000 0.000000 0.000000 -0.912833 7.530024 0.715867 -55.084747 -8.282322 12.106032 -0.524096 -83.617547 -0.049393 7.992066 5.450756 0.375641 -0.211366 0.253792 -0.000000 0.000000 0.000000 0.000000 0.000000 0.000000 0.000000 15.915846 -11.805349 -0.624292 74.637468 1.653263 -21.181582 0.217524 64.433861 -0.106121 -29.177190 0.966411 -0.313289 0.270930 -0.230276 -0.000000 0.000000 0.000000 0.000000 0.000000 0.000000 0.000000 
1.995151 16.719749 0.920854 69.475988 80.388090 84.568431 -10.856121 4.477132 1.060462 0.892006 8.950053 -12.444817 0.103780 1.771351 43.238600 1.515141 6.321972 18.420411 1.978200 0.000001 -42.980800 9.351528 -1.256822 3.050559 15.866348 2.946911 -29.351932 1.684919 -0.872735 31.290921 -4.217693 -11.620904 -26.338810 -176.199300 -0.000000 -12.142200 0.772812 -5.900311 -5.424719 -0.294839 -6.168722 -3.509538 -7.148115 -6.217868 1.587689 6.565794 -13.015469 -8.369774 -4.489154 -0.334616 -0.212419 0.000000 0.000000 0.000000 -1.083656 7.559036 0.663119 -55.056529 -8.477882 11.840347 -0.598394 -82.276278 -0.051797 8.606093 5.578680 0.414378 -0.215509 0.245245 -0.000000 0.000000 0.000000 0.000000 0.000000 0.000000 0.000000 16.077264 -11.829701 -0.596180 75.079899 1.910987 -20.951335 0.190118 62.891106 -0.110821 -32.023171 -0.468810 0.076344 0.280305 -0.207339 -0.000000 0.000000 0.000000 0.000000 0.000000 0.000000 0.000000 
2.172617 16.751781 1.028595 69.736740 80.250811 84.844796 -10.738351 4.307812 1.059379 0.737026 8.639603 -13.536737 0.147801 1.772438 44.160926 1.686839 8.746928 17.245669 2.854900 -0.000000 -41.243000 9.454831 -1.286077 3.080599 15.820463 3.043078 -27.960547 1.660096 -0.741448 30.033844 -4.215453 -11.803794 -25.934384 -176.253200 -0.000000 -12.433400 0.452707 -5.818153 -5.458764 -0.369491 -6.061519 -3.500949 -7.140208 -6.111916 1.639047 6.747627 -12.816684 -8.242910 -4.453985 -0.333121 -0.174873 0.000000 0.000000 0.000000 -1.281211 7.618478 0.636352 -54.902841 -8.620337 11.706779 -0.656546 -81.098227 -0.052676 8.975388 5.664548 0.439213 -0.217395 0.236803 -0.000000 0.000000 0.000000 0.000000 0.000000 0.000000 0.000000 16.179406 -11.736668 -0.568013 75.400853 2.108574 -20.285973 0.183016 61.406902 -0.112196 -34.106732 -1.723696 0.475393 0.284314 -0.187246 -0.000000 0.000000 0.000000 0.000000 0.000000 0.000000 0.000000 
2.347576 16.787115 1.136335 69.058934 80.037555 84.222235 -10.628645 4.140078 1.047201 0.483362 8.368535 -14.593568 0.173103 1.768127 44.871538 1.854105 10.909274 16.096133 3.573099 0.000000 -39.328200 9.555658 -1.316059 3.130003 15.709387 3.275816 -26.598680 1.624245 -0.622338 28.818209 -4.176867 -11.896485 -25.349007 -176.378200 0.000000 -12.605200 0.110365 -5.701919 -5.488497 -0.448751 -5.917892 -3.497762 -7.129080 -5.969435 1.663112 6.924173 -12.563800 -8.107572 -4.412333 -0.331208 -0.135580 0.000000 0.000000 0.000000 -1.506550 7.709310 0.640111 -54.625871 -8.707033 11.694053 -0.701499 -80.089200 -0.052120 9.087421 5.713772 0.449250 -0.217259 0.228490 -0.000000 0.000000 0.000000 0.000000 0.000000 0.000000 0.000000 16.237133 -11.516004 -0.545787 75.584647 2.260816 -19.206805 0.197741 59.974603 -0.110990 -35.338410 -2.708585 0.814765 0.284695 -0.170956 -0.000000 0.000000 0.000000 0.000000 0.000000 0.000000 0.000000 
2.519647 16.825522 1.243613 67.535807 79.754672 82.784905 -10.529664 3.974915 1.022749 0.154270 8.133374 -15.603292 0.181512 1.759644 45.373874 2.005952 12.739132 15.002966 4.120600 0.000000 -37.243000 9.648900 -1.350369 3.189127 15.552976 3.614369 -25.256811 1.583958 -0.516354 27.633854 -4.100302 -11.882222 -24.597389 -176.571500 0.000001 -12.537300 -0.243449 -5.555405 -5.503906 -0.530281 -5.742190 -3.498835 -7.114552 -5.794866 1.657062 7.096080 -12.260028 -7.964819 -4.366623 -0.329045 -0.094937 0.000000 0.000000 0.000000 -1.757276 7.827294 0.675479 -54.235605 -8.732970 11.785723 -0.736053 -79.249889 -0.050302 8.949753 5.728982 0.444289 -0.215346 0.220333 -0.000000 0.000000 0.000000 0.000000 0.000000 0.000000 0.000000 16.265669 -11.173231 -0.533751 75.624139 2.395237 -17.742084 0.234317 58.592318 -0.107852 -35.670966 -3.337214 1.030358 0.282930 -0.159053 0.000000 0.000000 0.000000 0.000000 0.000000 0.000000 0.000000 
2.688694 16.866679 1.350186 65.314616 79.403931 80.671883 -10.441627 3.813867 0.986839 -0.230815 7.926130 -16.558661 0.175162 1.747872 45.673837 2.133882 14.203517 13.995342 4.503800 0.000000 -35.140200 9.732242 -1.391016 3.247987 15.369871 4.017430 -23.927092 1.545424 -0.422697 26.463161 -3.985568 -11.749040 -23.697280 -176.826100 -0.000000 -12.187900 -0.601345 -5.383020 -5.497362 -0.612513 -5.539264 -3.502701 -7.096672 -5.593069 1.621177 7.265451 -11.911166 -7.816797 -4.318908 -0.326757 -0.053621 0.000000 0.000000 0.000000 -2.027051 7.969944 0.740879 -53.747544 -8.698550 11.967386 -0.762716 -78.573782 -0.047460 8.588386 5.711604 0.425930 -0.211968 0.212348 -0.000000 0.000000 0.000000 0.000000 0.000000 0.000000 0.000000 16.279995 -10.720186 -0.534176 75.521239 2.536711 -15.929713 0.291993 57.270798 -0.103151 -35.104559 -3.534055 1.078076 0.279783 -0.151820 -0.000000 0.000000 0.000000 0.000000 0.000000 0.000000 0.000000 
